# xmcd
#
# Track frame offsets:
#	150
#	17700
#	31765
#	48355
#	63620
#	67715
#	76070
#	86270
#	96410
#	108095
#	118385
#	132575
#	144680
#
# Disc length: 2121 seconds
#
# Revision: 3
# Processed by: cddbd v1.4PL0 Copyright (c) Steve Scherf et al.
# Submitted via: audiograbber 1.82.01
#
DISCID=a908470d
DTITLE=Joxe Ripiau - Karpe Diem
DYEAR=1900
DGENRE=Blues
TTITLE0=Karpe Diem
TTITLE1=Pedro Mayo
TTITLE2=Deabruaren Kunbia
TTITLE3=Jacqueline
TTITLE4=Karpe Diem Farrantxi Cover
TTITLE5=Izpiritu Librea
TTITLE6=Guiro Garratza
TTITLE7=El Alamo Gogoan
TTITLE8=Baleike
TTITLE9=Paradisu Zinema
TTITLE10=Txikira Beti Ordago
TTITLE11=Sekretua Entzutea da
TTITLE12=Maracaibo
EXTD=
EXTT0=
EXTT1=
EXTT2=
EXTT3=
EXTT4=
EXTT5=
EXTT6=
EXTT7=
EXTT8=
EXTT9=
EXTT10=
EXTT11=
EXTT12=
PLAYORDER=
